#N canvas 388 299 652 427 10;
#X obj 172 273 textfile;
#X msg 303 237 clear;
#X text 286 357 then a 'clear' to start over;
#X text 252 342 then send it a 'write' statement;
#X text 264 325 1st construct the .txt file with 'add' statements;
#X obj 165 28 bng 15 250 50 0 empty empty empty 17 7 0 10 -262144 -1
-1;
#X msg 172 214 add holy moly \$1;
#X obj 172 185 random 600;
#X obj 193 133 t b b b;
#X obj 289 102 r alive;
#X msg 303 213 write /mnt/ramfolder/heartbeat_new.txt cr;
#X obj 217 90 metro;
#X obj 207 19 loadbang;
#X msg 223 54 tempo 2 sec;
#X connect 1 0 0 0;
#X connect 5 0 11 0;
#X connect 5 0 13 0;
#X connect 6 0 0 0;
#X connect 7 0 6 0;
#X connect 8 0 10 0;
#X connect 8 2 7 0;
#X connect 9 0 8 0;
#X connect 10 0 0 0;
#X connect 10 0 1 0;
#X connect 11 0 8 0;
#X connect 12 0 11 0;
#X connect 12 0 13 0;
#X connect 13 0 11 0;
