#N canvas 619 477 679 461 10;
#X obj 62 69 route 1 2 3 4 5;
#X obj 64 37 inlet;
#X obj 61 131 pan_player;
#X obj 493 134 pan_player;
#X obj 159 132 pan_player;
#X obj 269 133 pan_player;
#X obj 382 133 pan_player;
#X connect 0 0 2 0;
#X connect 0 1 4 0;
#X connect 0 2 5 0;
#X connect 0 3 6 0;
#X connect 0 4 3 0;
#X connect 1 0 0 0;
