#N canvas 312 23 951 727 10;
#X obj 384 103 inlet;
#X text 361 80 play bang;
#X obj 590 542 *~;
#X obj 620 541 *~;
#X obj 650 540 *~;
#X obj 678 538 *~;
#N canvas 0 22 450 278 (subpatch) 0;
#X array \$0ar 148739 float 2;
#X coords 0 1 148739 -1 50 50 1 0 0;
#X restore 119 673 graph;
#X obj 164 601 soundfiler;
#X obj 279 597 print loading;
#X obj 175 525 list;
#X obj 182 445 t s b;
#X msg 165 568 read -resize \$1 \$2;
#X obj 179 354 symbol;
#X obj 478 421 tabplay~ \$0ar;
#X msg 221 496 symbol \$1ar;
#X obj 229 471 f \$0;
#X obj 575 458 *~;
#X obj 590 400 loadbang;
#X msg 589 423 1;
#X msg 499 267 stop, f 5;
#X obj 423 341 bng 15 250 50 0 empty empty empty 17 7 0 10 -262144
-1 -1;
#X obj 400 169 route load play volume stop panorama;
#X obj 609 705 dac~ 3 4 5 6;
#X obj 765 337 print setPanoramaChannel3;
#X obj 766 362 print setPanoramaChannel4;
#X obj 766 385 print setPanoramaChannel5;
#X obj 763 409 print setPanoramaChannel6;
#X obj 705 211 unpack 0 0 0 0;
#X connect 0 0 21 0;
#X connect 2 0 22 0;
#X connect 3 0 22 1;
#X connect 4 0 22 2;
#X connect 5 0 22 3;
#X connect 9 0 11 0;
#X connect 10 0 9 0;
#X connect 10 1 15 0;
#X connect 11 0 7 0;
#X connect 11 0 8 0;
#X connect 12 0 10 0;
#X connect 13 0 16 0;
#X connect 14 0 9 1;
#X connect 15 0 14 0;
#X connect 16 0 2 0;
#X connect 16 0 3 0;
#X connect 16 0 4 0;
#X connect 16 0 5 0;
#X connect 17 0 18 0;
#X connect 18 0 16 1;
#X connect 19 0 13 0;
#X connect 20 0 13 0;
#X connect 21 0 12 0;
#X connect 21 1 13 0;
#X connect 21 2 16 1;
#X connect 21 3 19 0;
#X connect 21 4 27 0;
#X connect 27 0 2 1;
#X connect 27 0 23 0;
#X connect 27 1 3 1;
#X connect 27 1 24 0;
#X connect 27 2 4 1;
#X connect 27 2 25 0;
#X connect 27 3 5 1;
#X connect 27 3 26 0;
