#N canvas 377 223 1147 593 10;
#X obj 422 -107 netreceive 3000 1;
#X obj 954 36 float;
#X obj 928 79 metro;
#X obj 399 -64 route A B C D E all loop;
#X msg 760 112 symbol play;
#X obj 939 -17 list;
#X obj 941 -3 t b f;
#X msg 898 33 stop;
#X obj 770 -60 route start stop;
#X msg 703 7 symbol stop;
#X msg 393 144 1 \$1 \$2 \, 2 \$1 \$2 \, 3 \$1 \$2 \, 4 \$1 \$2 \,
5 \$1 \$2;
#X obj 397 100 list append 1;
#X obj 208 95 print all;
#X obj 125 190 print all2;
#X text 403 115 hack: some commands don't have a second argument so
just add a dummy argument in the end;
#X obj 211 -14 print A;
#X obj 743 192 bng 15 250 50 0 empty empty empty 17 7 0 10 -262144
-1 -1;
#X obj 94 355 multi_channel_player;
#X obj 683 355 multi_channel_player;
#X obj 241 355 multi_channel_player;
#X obj 390 355 multi_channel_player;
#X obj 537 355 multi_channel_player;
#X connect 0 0 3 0;
#X connect 1 0 2 1;
#X connect 2 0 4 0;
#X connect 3 0 15 0;
#X connect 3 0 17 0;
#X connect 3 1 19 0;
#X connect 3 2 20 0;
#X connect 3 3 21 0;
#X connect 3 4 18 0;
#X connect 3 5 11 0;
#X connect 3 5 12 0;
#X connect 3 6 8 0;
#X connect 4 0 11 0;
#X connect 5 0 6 0;
#X connect 6 0 2 0;
#X connect 6 1 1 0;
#X connect 7 0 2 0;
#X connect 8 0 5 0;
#X connect 8 1 7 0;
#X connect 8 1 9 0;
#X connect 9 0 11 0;
#X connect 10 0 13 0;
#X connect 10 0 17 0;
#X connect 10 0 18 0;
#X connect 10 0 19 0;
#X connect 10 0 20 0;
#X connect 10 0 21 0;
#X connect 11 0 10 0;
